<svg xmlns="http://www.w3.org/2000/svg" width="17" height="18" viewBox="0 0 17 18">
    <title id="closeId">close</title>
    <path fill="#3C3C3C"
          d="M1.265.81l.096.086L8.362 7.9l7.03-7.03c.303-.303.796-.303 1.1 0 .273.274.303.707.076 1.013l-.108.123L9.463 9l7.029 7.029.105.125c.198.27.168.702-.105.975-.28.28-.725.304-1.032.061l-.096-.086L8.362 10.1l-7.028 7.03c-.304.303-.797.303-1.1 0-.274-.274-.304-.707-.077-1.013l.108-.123L7.262 9 .233 1.971l-.105-.125c-.198-.27-.168-.702.105-.975C.513.59.958.567 1.265.81z"/>
</svg>
